<?xml version="1.0" encoding="utf-8"?>
<!-- Generator: Adobe Illustrator 16.0.0, SVG Export Plug-In . SVG Version: 6.00 Build 0)  -->
<!DOCTYPE svg PUBLIC "-//W3C//DTD SVG 1.1//EN" "http://www.w3.org/Graphics/SVG/1.1/DTD/svg11.dtd">
<svg version="1.1"
	 id="Calque_1" xmlns:sodipodi="http://sodipodi.sourceforge.net/DTD/sodipodi-0.dtd" xmlns:inkscape="http://www.inkscape.org/namespaces/inkscape" xmlns:cc="http://creativecommons.org/ns#" xmlns:rdf="http://www.w3.org/1999/02/22-rdf-syntax-ns#" xmlns:svg="http://www.w3.org/2000/svg" xmlns:dc="http://purl.org/dc/elements/1.1/" inkscape:export-ydpi="90" inkscape:export-xdpi="90" sodipodi:docname="Tux Mono.svg" inkscape:export-filename="./Tux Mono.png" inkscape:version="0.91 r13725"
	 xmlns="http://www.w3.org/2000/svg" xmlns:xlink="http://www.w3.org/1999/xlink" x="0px" y="0px" width="712px" height="860px"
	 viewBox="0 0 712 860" enable-background="new 0 0 712 860" xml:space="preserve">
<defs>
	
	<inkscape:path-effect  id="path-effect29672-0" is_visible="true" effect="spiro"></inkscape:path-effect>
	<inkscape:path-effect  id="path-effect29678-1" is_visible="true" effect="spiro"></inkscape:path-effect>
	<inkscape:path-effect  id="path-effect29678-4-6" is_visible="true" effect="spiro"></inkscape:path-effect>
	<inkscape:path-effect  id="path-effect28714-5" is_visible="true" effect="spiro"></inkscape:path-effect>
	<inkscape:path-effect  id="path-effect29721-2" is_visible="true" effect="spiro"></inkscape:path-effect>
	<inkscape:path-effect  id="path-effect28463-8-0" is_visible="true" effect="spiro"></inkscape:path-effect>
	<inkscape:path-effect  id="path-effect28463-0-7" is_visible="true" effect="spiro"></inkscape:path-effect>
	<inkscape:path-effect  id="path-effect28797-8-1" is_visible="true" effect="spiro"></inkscape:path-effect>
	<inkscape:path-effect  id="path-effect28797-81" is_visible="true" effect="spiro"></inkscape:path-effect>
	<inkscape:path-effect  id="path-effect28273-4-2" is_visible="true" effect="spiro"></inkscape:path-effect>
	<inkscape:path-effect  id="path-effect28851-0" is_visible="true" effect="spiro"></inkscape:path-effect>
	<inkscape:path-effect  id="path-effect28881-6" is_visible="true" effect="spiro"></inkscape:path-effect>
	<inkscape:path-effect  id="path-effect28974-8" is_visible="true" effect="spiro"></inkscape:path-effect>
	<inkscape:path-effect  id="path-effect29455-3" is_visible="true" effect="spiro"></inkscape:path-effect>
	<inkscape:path-effect  id="path-effect28463-4" is_visible="true" effect="spiro"></inkscape:path-effect>
	<inkscape:path-effect  id="path-effect28489-4" is_visible="true" effect="spiro"></inkscape:path-effect>
	<inkscape:path-effect  id="path-effect28273-54-7" is_visible="true" effect="spiro"></inkscape:path-effect>
	<inkscape:path-effect  id="path-effect28273-44" is_visible="true" effect="spiro"></inkscape:path-effect>
	<inkscape:path-effect  id="path-effect28384-7" is_visible="true" effect="spiro"></inkscape:path-effect>
	<inkscape:path-effect  id="path-effect29553-7" is_visible="true" effect="spiro"></inkscape:path-effect>
	<inkscape:path-effect  id="path-effect29707-7-6" is_visible="true" effect="spiro"></inkscape:path-effect>
	<inkscape:path-effect  id="path-effect4500-7" is_visible="true" effect="spiro"></inkscape:path-effect>
	<inkscape:path-effect  id="path-effect4582-3" is_visible="true" effect="spiro"></inkscape:path-effect>
	<inkscape:path-effect  id="path-effect14300-7" is_visible="true" effect="spiro"></inkscape:path-effect>
	<inkscape:path-effect  id="path-effect14300-2-7" is_visible="true" effect="spiro"></inkscape:path-effect>
	<inkscape:path-effect  id="path-effect14300-2-2-0" is_visible="true" effect="spiro"></inkscape:path-effect>
	<inkscape:path-effect  id="path-effect29716-0-0" is_visible="true" effect="spiro"></inkscape:path-effect>
	<inkscape:path-effect  id="path-effect29716-0-8-3" is_visible="true" effect="spiro"></inkscape:path-effect>
	<inkscape:path-effect  id="path-effect29716-6-1" is_visible="true" effect="spiro"></inkscape:path-effect>
	<inkscape:path-effect  id="path-effect14972-2-2" is_visible="true" effect="spiro"></inkscape:path-effect>
	<inkscape:path-effect  id="path-effect15017-9" is_visible="true" effect="spiro"></inkscape:path-effect>
	<inkscape:path-effect  id="path-effect4669-1" is_visible="true" effect="spiro"></inkscape:path-effect>
	<inkscape:path-effect  id="path-effect4669-4-3" is_visible="true" effect="spiro"></inkscape:path-effect>
</defs>
<sodipodi:namedview  id="namedview19" inkscape:cx="730.76384" gridtolerance="10" bordercolor="#666666" guidetolerance="10" inkscape:zoom="0.25" borderopacity="1" objecttolerance="10" pagecolor="#ffffff" showgrid="false" inkscape:cy="436.78527" inkscape:window-maximized="0" inkscape:window-y="0" inkscape:window-x="0" inkscape:window-height="1061" inkscape:window-width="1341" inkscape:pageshadow="2" inkscape:pageopacity="0" inkscape:current-layer="Calque_1">
	</sodipodi:namedview>
<path id="path3" fill="#450084" d="M683.91,677.74c-0.01-0.01-0.021-0.021-0.021-0.03c-6.066-6.85-8.96-19.55-12.066-33.08
	c-3.104-13.52-6.57-28.1-17.67-37.55c-0.021-0.021-0.054-0.04-0.07-0.063c-2.2-1.92-4.46-3.538-6.729-4.89
	c-2.277-1.35-4.591-2.45-6.897-3.32c15.43-45.76,9.38-91.328-6.2-132.5c-19.11-50.54-52.479-94.568-77.97-124.688
	c-28.53-35.99-56.434-70.15-55.88-120.61C501.25,144,508.87,1.19,373.35,1c-5.51-0.01-11.26,0.22-17.25,0.7
	C204.66,13.89,244.83,173.89,242.58,227.46c-2.77,39.18-10.71,70.06-37.66,108.36c-31.65,37.64-76.23,98.57-97.34,162
	c-9.96,29.93-14.7,60.438-10.33,89.316c-1.37,1.23-2.67,2.521-3.92,3.844c-9.29,9.93-16.16,21.946-23.81,30.037
	c-7.15,7.143-17.33,9.853-28.53,13.859c-11.2,4.021-23.49,9.94-30.95,24.26c0,0,0,0.014-0.01,0.014
	c-0.01,0.02-0.021,0.05-0.04,0.066c-3.51,6.551-4.65,13.62-4.65,20.79c0,6.63,0.98,13.354,1.97,19.82
	c2.06,13.46,4.15,26.188,1.38,34.81c-8.86,24.23-10,40.98-3.76,53.144c6.26,12.18,19.11,17.55,33.64,20.59
	c29.06,6.06,68.41,4.56,99.42,21l2.67-5.03l-2.64,5.04c33.2,17.36,66.86,23.521,93.71,17.391c19.48-4.438,35.28-16.038,43.4-33.881
	c21-0.1,44.05-9,80.97-11.026c25.053-2.021,56.343,8.896,92.33,6.896c0.94,3.9,2.301,7.66,4.16,11.23
	c0.021,0.026,0.04,0.066,0.063,0.1c13.946,27.9,39.866,40.66,67.5,38.48c27.657-2.184,57.066-18.49,80.85-46.78l-4.36-3.66
	l4.394,3.62c22.659-27.479,60.27-38.87,85.22-53.91c12.47-7.52,22.58-16.938,23.37-30.62C710.4,713.55,702.37,698.23,683.91,677.74z
	"/>
<path id="path5_1_" fill="#AD9C65" d="M710.238,727.431c-0.521,9.144-8.143,20.751-20.372,28.118
	c-24.116,16.389-65.123,27.226-92.779,60.731c-24.03,28.59-53.459,40.492-79.253,42.526c-25.793,2.037-50.493-9.423-63.624-35.759
	l0,0l0,0c-12.376-19.217-8.734-40.601-1.876-66.383c8.666-32.571,16.834-58.924,17.711-73.182l0,0
	c1.385-27.562,2.455-51.651,8.73-70.574c4.638-18.58,18.975-36.411,33.789-39.979c0.604-0.322,0,0,0.596-0.293
	c1.465,23.866,9.558,49.705,30.442,54.971c22.86,6.023,57.905-16.148,71.815-32.148c2.783-0.11-2.635,0.064,0,0
	c12.209-0.293,29.615,1.396,40.08,10.54l0,0l0,0c8.038,6.814,12.452,21.82,15.767,36.229c3.316,14.422,7.136,29.385,17.081,40.574
	l0,0l0,0C707.46,704.006,710.77,718.275,710.238,727.431z"/>
<path id="path5" fill="#CBB677" d="M698.24,726.57c-0.48,8.438-6.59,14.71-17.88,21.51c-22.563,13.61-62.554,25.45-88.08,56.38
	c-22.184,26.39-49.224,40.88-73.03,42.76s-44.35-8-56.47-32.31l-0.021-0.05l-0.028-0.063c-7.521-14.3-4.392-36.85,1.938-60.646
	c6.33-23.79,15.43-48.23,16.65-68.08v-0.063c1.276-25.438,2.71-47.659,6.979-64.81c4.28-17.15,7.948-27.95,19.869-34.48
	c0.562-0.3-0.55,0.271,0,0c1.353,22.03,16.387,47.261,35.666,52.117c21.103,5.563,52.106-16.947,64.947-31.717
	c2.566-0.104,5.066-0.23,7.5-0.29c11.27-0.271,20.71,0.38,30.368,8.82l0.028,0.026l0.03,0.021c7.42,6.29,10.95,18.17,14.01,31.47
	c3.063,13.313,5.5,27.8,14.684,38.13l0.01,0.01l0.01,0.021C693.061,704.9,698.73,718.12,698.24,726.57z"/>
<path id="path7_2_" fill="#AD9C65" d="M278.5,793L278.5,793L278.5,793c-2.236,29.298-15.495,48.685-40.869,54.48
	c-25.353,5.796-59.862,2.587-94.2-15.372c0,0,0.011,0,0,0C105.435,811.981,74.5,817.5,31.761,806.712
	C17.265,803.688,9.269,796.238,4.93,787.78c-4.339-8.47-7.411-22.401,1.814-47.567l0,0l0,0c4.569-14.079,2.324-28.999,0.111-43.461
	c-2.213-14.45-3.298-27.607,1.644-36.77l0.043-0.09c6.322-12.184,14.583-18.396,26.087-22.516C46.5,631.5,57.5,630.5,69.52,621.02
	l0,0l0,0c10.712-13.176,15.056-20.69,23.81-30.037c7.385-7.891,19.332-16.187,30.475-16.264c0.132,0.015,0.252,0.015,0.384,0
	c1.95,0.015,4.021,0.176,6.212,0.519c14.791,2.233,30.675,10.08,43.1,26.932l36.333,67l0,0l0,0
	c9.543,19.929,28.167,35.083,46.921,62.024C273.836,753.544,280.22,775.819,278.5,793z"/>
<path id="path7" fill="#CBB677" d="M269.49,788.95l-0.01,0.06v0.07c-2.04,26.74-17.12,41.3-40.28,46.59
	c-23.14,5.29-54.53,0.021-85.87-16.37c-0.01,0-0.02-0.01-0.03-0.01c-34.68-18.37-75.93-16.54-102.4-22.07
	c-13.23-2.76-21.87-6.92-25.83-14.64c-3.96-7.73-4.05-21.2,4.37-44.17l0.04-0.104l0.03-0.1c4.17-12.85,1.08-26.91-0.94-40.11
	c-2.02-13.188-3.01-25.196,1.5-33.56l0.04-0.08c5.77-11.12,14.23-15.1,24.73-18.86c10.51-3.77,22.96-6.729,32.79-16.59l0.06-0.05
	l0.05-0.05c9.09-9.59,15.92-21.62,23.91-30.15c6.74-7.2,13.49-11.97,23.66-12.04c0.12,0.014,0.23,0.014,0.35,0
	c1.78,0.014,3.67,0.16,5.67,0.474c13.5,2.04,25.27,11.479,36.61,26.856l32.74,59.67l0.01,0.03l0.02,0.021
	c8.71,18.188,27.11,38.198,42.7,58.608C259,752.78,271.06,773.27,269.49,788.95z"/>
<path id="path9_1_" fill="#AD9C65" d="M442.453,230.789c-2.883-5.86-8.773-11.436-18.797-15.703l-0.021-0.012l-0.035-0.011
	c-20.846-9.263-29.893-9.923-41.527-17.775c-18.939-12.632-33.588-15.595-46.594-15.538c-6.813,0.022-13.609,0.982-19.062,2.939
	c-15.847,5.656-26.65,16.287-33.241,22.761l-0.011,0.011c0,0.012-0.012,0.012-0.012,0.023c-1.293,1.275-2.96,2.436-6.996,5.507
	c-4.068,3.084-10.166,7.728-18.939,14.555c-7.796,6.065-10.331,13.962-7.633,23.215c2.688,9.251,13.027,21.512,28.753,30.74l0,0
	l3.233,2.092c9.505,7.336,11.507,10.33,19.161,16.714c3.828,3.187,7.852,6.032,12.699,8.181c4.849,2.151,10.508,3.608,17.592,4.041
	c16.625,1.001,28.861-4.177,39.666-10.595c10.822-6.407,20.288-13.52,30.811-17.059l0,0l0,0
	c21.559-6.987,35.666-24.303,40.479-37.674C444.393,240.51,445.326,236.649,442.453,230.789z"/>
<path id="path9" fill="#CBB677" d="M432.77,232.69c-2.63-5.15-8-10.05-17.14-13.8l-0.02-0.01l-0.03-0.01
	c-19.01-8.14-27.26-8.72-37.87-15.62c-17.27-11.1-31.54-14.99-43.399-14.94c-6.211,0.02-11.761,1.12-16.729,2.84
	c-14.45,4.97-24.04,15.34-30.05,21.03l-0.01,0.01c0,0.01-0.01,0.01-0.01,0.02c-1.18,1.12-2.7,2.14-6.38,4.84
	c-3.71,2.71-9.27,6.79-17.27,12.79c-7.11,5.33-9.42,12.27-6.96,20.4c2.45,8.13,10.29,17.51,24.63,25.62l0.02,0.02l0.03,0.01
	c8.9,5.23,14.98,12.28,21.96,17.89c3.49,2.8,7.16,5.3,11.58,7.19c4.42,1.89,9.58,3.17,16.04,3.55c15.16,0.88,26.32-3.67,36.17-9.31
	c9.87-5.63,18.229-12.52,27.82-15.63l0.02-0.01l0.021-0.01c19.656-6.14,33.68-18.51,38.066-30.26
	C435.46,243.42,435.39,237.84,432.77,232.69z"/>
<path id="path11" inkscape:connector-curvature="0" sodipodi:nodetypes="sscccccssszzs" d="M382.89,261.71
	c-15.641,8.153-33.907,18.04-53.35,18.04c-19.43,0-34.78-8.98-45.82-17.73c-5.52-4.37-10-8.72-13.38-11.88
	c-5.864-4.629-5.162-11.122-2.752-10.93c4.039,0.504,4.649,5.822,7.193,8.2c3.438,3.22,7.75,7.39,12.97,11.53
	c10.44,8.27,24.36,16.32,41.79,16.32c17.4,0,37.712-10.215,50.11-17.17c7.021-3.94,15.962-11.003,23.256-16.357
	c5.581-4.096,5.378-9.029,9.983-8.492c4.608,0.537,1.199,5.46-5.254,11.092S391.09,257.436,382.89,261.71z"/>
<path id="path13" fill="#FFFFFF" d="M622.39,595.47c-2.17-0.08-4.31-0.066-6.39-0.02c-0.189,0.01-0.38,0.01-0.58,0.01
	c5.37-16.96-6.51-29.47-38.17-43.79c-32.83-14.439-58.99-13.01-63.41,16.29c-0.279,1.53-0.51,3.1-0.68,4.68
	c-2.46,0.86-4.92,1.94-7.4,3.29c-15.41,8.44-23.83,23.74-28.51,42.521c-4.67,18.76-6.02,41.43-7.3,66.92c0,0.01,0,0.01,0,0.02
	c-0.79,12.813-6.07,30.15-11.41,48.514c-53.78,38.366-128.42,54.986-191.8,11.729c-4.29-6.79-9.22-13.52-14.29-20.16
	c-3.24-4.236-6.57-8.449-9.87-12.606c6.5,0.01,12.03-1.063,16.5-3.08c5.56-2.53,9.46-6.57,11.4-11.771
	c3.86-10.39-0.02-25.05-12.39-41.8c-12.37-16.74-33.32-35.63-64.1-54.51c0,0,0,0,0-0.01c-22.62-14.07-35.26-31.313-41.18-50.03
	c-5.93-18.73-5.1-38.98-0.53-58.97c8.76-38.37,31.26-75.69,45.62-99.11c3.86-2.84,1.38,5.28-14.54,34.84
	c-14.26,27.021-40.93,89.38-4.42,138.063c0.98-34.643,9.25-69.973,23.14-103.021c20.23-45.85,62.54-125.38,65.9-188.76
	c1.74,1.26,7.69,5.28,10.34,6.79c0.01,0.01,0.01,0.01,0.02,0.01c7.76,4.57,13.59,11.25,21.14,17.32
	c7.57,6.08,17.02,11.33,31.3,12.16c1.37,0.08,2.71,0.12,4.02,0.12c14.72,0,26.2-4.8,35.761-10.27
	c10.393-5.94,18.689-12.52,26.563-15.08c0.01-0.01,0.02-0.01,0.03-0.01c16.63-5.2,29.84-14.4,37.356-25.12
	c12.92,50.92,42.96,124.47,62.271,160.359c10.27,19.038,30.688,59.5,39.51,108.25c5.59-0.173,11.75,0.641,18.34,2.327
	c23.07-59.81-19.56-124.22-39.06-142.16c-7.87-7.64-8.25-11.06-4.34-10.9c21.14,18.71,48.908,56.32,59.01,98.78
	c4.606,19.356,5.59,39.72,0.646,59.81c2.41,1,4.87,2.09,7.36,3.271C615.28,558.39,628.97,574.07,622.39,595.47z"/>
<path id="path15" inkscape:connector-curvature="0" sodipodi:nodetypes="ccccccccccccccccccccccccscccc" fill="#FFFFFF" d="
	M434.51,174.03c0.08,10.09-1.66,18.68-5.49,27.45c-2.18,5-4.688,9.2-7.696,12.84c-1.021-0.49-2.08-0.96-3.184-1.41
	c-3.81-1.63-7.18-2.97-10.196-4.11c-3.021-1.14-5.378-1.919-7.812-2.759c1.761-2.13,5.23-4.64,6.521-7.79
	c1.96-4.75,2.92-9.39,3.1-14.92c0-0.22,0.07-0.41,0.07-0.67c0.108-5.3-0.59-9.83-2.142-14.47c-1.619-4.87-3.682-8.37-6.658-11.28
	c-2.99-2.91-5.973-4.23-9.553-4.35c-0.17-0.01-0.329-0.01-0.5-0.01c-3.357,0.01-6.277,1.17-9.301,3.69
	c-3.17,2.65-5.52,6.04-7.479,10.76c-1.95,4.72-2.91,9.4-3.104,14.96c-0.027,0.22-0.027,0.41-0.027,0.63
	c-0.069,3.06,0.131,5.86,0.601,8.58c-6.88-3.43-15.682-5.931-21.762-7.381c-0.353-2.63-0.552-5.34-0.61-8.18v-0.77
	c-0.11-10.06,1.54-18.69,5.41-27.45c3.87-8.77,8.66-15.07,15.396-20.2c6.75-5.12,13.384-7.47,21.23-7.55h0.37
	c7.68,0,14.25,2.26,21,7.15c6.85,4.98,11.79,11.2,15.77,19.9c3.9,8.48,5.78,16.77,5.974,26.6
	C434.44,173.55,434.44,173.77,434.51,174.03z"/>
<path id="path17" inkscape:connector-curvature="0" sodipodi:nodetypes="cccccccccccccccccccccccccccccc" fill="#FFFFFF" d="
	M318.43,184.08c-1.01,0.29-1.987,0.6-2.96,0.93c-5.5,1.9-9.867,3.997-14.086,6.787c0.41-2.92,0.47-5.88,0.15-9.19
	c-0.03-0.18-0.03-0.33-0.03-0.51c-0.44-4.39-1.37-8.07-2.92-11.79c-1.65-3.87-3.5-6.6-5.93-8.7c-2.2-1.9-4.28-2.78-6.58-2.76
	c-0.23,0-0.47,0.01-0.71,0.03c-2.58,0.22-4.72,1.48-6.75,3.95c-2.021,2.46-3.35,5.52-4.31,9.58c-0.96,4.05-1.21,8.03-0.81,12.6
	c0,0.18,0.04,0.33,0.04,0.51c0.44,4.43,1.33,8.11,2.91,11.83c1.62,3.83,3.5,6.56,5.93,8.66c0.41,0.35,0.81,0.67,1.21,0.95
	c-2.52,1.95-4.213,3.333-6.293,4.853c-1.33,0.97-2.91,2.13-4.75,3.49c-4.01-3.76-7.14-8.479-9.88-14.71
	c-3.24-7.36-4.97-14.73-5.49-23.43v-0.07c-0.48-8.7,0.37-16.18,2.76-23.92c2.4-7.74,5.6-13.34,10.25-17.94
	c4.64-4.61,9.32-6.93,14.96-7.22c0.44-0.02,0.87-0.03,1.3-0.03c5.11,0.01,9.67,1.71,14.39,5.48c5.12,4.09,8.99,9.32,12.229,16.69
	c3.25,7.37,4.979,14.74,5.46,23.44v0.07C318.75,177.31,318.72,180.75,318.43,184.08L318.43,184.08z"/>
<path id="path28396-7" inkscape:connector-curvature="0" sodipodi:nodetypes="aaaaaaa" d="M344.087,204.89
	c0.646,2.076,3.993,1.732,5.926,2.728c1.696,0.874,3.063,2.789,4.971,2.844c1.818,0.053,4.651-0.63,4.89-2.436
	c0.313-2.386-3.17-3.901-5.412-4.775c-2.885-1.125-6.58-1.695-9.286-0.191C344.553,203.404,343.876,204.212,344.087,204.89
	L344.087,204.89z"/>
<path id="path5461" inkscape:connector-curvature="0" sodipodi:nodetypes="aaaaaaa" d="M324.322,204.89
	c-0.646,2.076-3.993,1.732-5.926,2.728c-1.697,0.874-3.063,2.789-4.971,2.844c-1.818,0.053-4.651-0.63-4.891-2.436
	c-0.313-2.386,3.171-3.901,5.413-4.775c2.884-1.125,6.58-1.695,9.286-0.191C323.855,203.404,324.533,204.212,324.322,204.89z"/>
<path d="M283.583,206.957l17.8-15.16c0,0,1.868-34.363-17.8-32.577C266.167,169.833,274,201.748,283.583,206.957z"/>
<path d="M371.663,191.171c0,0,16.434,12.745,28.469,14.87s15.905-47.557-6.363-53.216
	C367.833,151.5,371.663,191.171,371.663,191.171z"/>
<path id="path7_1_" fill="#CBB677" d="M269.49,788.95l-0.01,0.06v0.07c-2.041,26.74-17.121,41.3-40.28,46.59
	c-23.14,5.29-54.53,0.021-85.87-16.37c-0.01,0-0.02-0.01-0.03-0.01c-34.68-18.37-75.93-16.54-102.4-22.07
	c-13.23-2.76-21.87-6.92-25.83-14.64c-3.96-7.73-4.05-21.2,4.37-44.17l0.04-0.104l0.03-0.1c4.17-12.85,1.08-26.91-0.94-40.11
	c-2.02-13.188-3.01-25.196,1.5-33.56l0.04-0.08c5.77-11.12,14.23-15.1,24.73-18.86c10.51-3.77,22.96-6.729,32.79-16.59l0.06-0.05
	l0.05-0.05c9.09-9.59,15.92-21.62,23.91-30.15c6.74-7.2,13.49-11.97,23.66-12.04c0.12,0.014,0.23,0.014,0.35,0
	c1.78,0.014,3.67,0.16,5.67,0.474c13.5,2.04,25.27,11.479,36.609,26.856l32.74,59.67l0.01,0.03l0.021,0.021
	c8.71,18.188,27.11,38.198,42.7,58.608C259,752.78,271.061,773.27,269.49,788.95z"/>
</svg>
